# xmcd
#
# Track frame offsets:
#	150
#	13888
#	27878
#	43803
#	54836
#	66316
#	81153
#	93511
#	105495
#	118848
#	136021
#	149326
#	160401
#	172871
#	187808
#	201116
#	217436
#
# Disc length: 3041 seconds
#
# Revision: 1
# Processed by: cddbd v1.4PL0 Copyright (c) Steve Scherf et al.
# Submitted via: EasyCDDAExtractor 6.2.0.3
#
DISCID=f00bdf11
DTITLE=Lynn Anderson - Lynn Anderson [CD1)
DYEAR=1999
DGENRE=Country
TTITLE0=Talking in Your Sleep
TTITLE1=Cry
TTITLE2=You Needed Me
TTITLE3=The Ways to Love a Man
TTITLE4=Listen to a Country Song
TTITLE5=We've Only Just Begun
TTITLE6=Stand By Your Man
TTITLE7=How Can I Unlove You
TTITLE8=Rose Garden
TTITLE9=Blue Bayou
TTITLE10=Danny's Song
TTITLE11=Someday Soon
TTITLE12=I've Never Loved Anyone More
TTITLE13=Could I Have This Dance?
TTITLE14=Keep Me in Mind
TTITLE15=When I Dream
TTITLE16=If I Kiss You
EXTD=
EXTT0=
EXTT1=
EXTT2=
EXTT3=
EXTT4=
EXTT5=
EXTT6=
EXTT7=
EXTT8=
EXTT9=
EXTT10=
EXTT11=
EXTT12=
EXTT13=
EXTT14=
EXTT15=
EXTT16=
PLAYORDER=
